<?xml version="1.0" encoding="UTF-8" standalone="no"?>
<!-- Created with Inkscape (http://www.inkscape.org/) -->

<svg
   width="210mm"
   height="297mm"
   viewBox="0 0 210 297"
   version="1.1"
   id="svg1"
   inkscape:version="1.4 (86a8ad7, 2024-10-11)"
   sodipodi:docname="cat.svg"
   xmlns:inkscape="http://www.inkscape.org/namespaces/inkscape"
   xmlns:sodipodi="http://sodipodi.sourceforge.net/DTD/sodipodi-0.dtd"
   xmlns="http://www.w3.org/2000/svg"
   xmlns:svg="http://www.w3.org/2000/svg">
  <sodipodi:namedview
     id="namedview1"
     pagecolor="#ffffff"
     bordercolor="#000000"
     borderopacity="0.25"
     inkscape:showpageshadow="2"
     inkscape:pageopacity="0.0"
     inkscape:pagecheckerboard="0"
     inkscape:deskcolor="#d1d1d1"
     inkscape:document-units="mm"
     inkscape:zoom="0.64765011"
     inkscape:cx="397.59122"
     inkscape:cy="545.81941"
     inkscape:window-width="1280"
     inkscape:window-height="971"
     inkscape:window-x="-8"
     inkscape:window-y="-8"
     inkscape:window-maximized="1"
     inkscape:current-layer="layer1" />
  <defs
     id="defs1" />
  <g
     inkscape:label="Capa 1"
     inkscape:groupmode="layer"
     id="layer1">
    <rect
       style="fill:#ff850e;fill-opacity:0.87654322;stroke-width:0.264583"
       id="rect2"
       width="89.059143"
       height="49.840439"
       x="58.828056"
       y="117.24759" />
    <rect
       style="fill:#ff7112;fill-opacity:1;stroke-width:0.338041"
       id="rect4"
       width="17.158184"
       height="15.115543"
       x="81.297119"
       y="161.77715" />
    <rect
       style="fill:#000000;fill-opacity:1;stroke-width:0.264583"
       id="rect33-1"
       width="1.6341127"
       height="6.127923"
       x="84.499413"
       y="171.35268" />
    <rect
       style="fill:#000000;fill-opacity:1;stroke-width:0.264583"
       id="rect33-7"
       width="1.6341127"
       height="6.127923"
       x="93.950386"
       y="171.85852" />
    <rect
       style="fill:#ff7112;fill-opacity:1;stroke-width:0.338041"
       id="rect7"
       width="17.158184"
       height="15.115543"
       x="107.85145"
       y="163.00273" />
    <rect
       style="fill:#000000;fill-opacity:1;stroke-width:0.264583"
       id="rect33-2"
       width="1.6341127"
       height="6.127923"
       x="111.51022"
       y="172.50423" />
    <rect
       style="fill:#000000;fill-opacity:1;stroke-width:0.264583"
       id="rect33-6"
       width="1.6341127"
       height="6.127923"
       x="119.97688"
       y="171.85852" />
    <rect
       style="fill:#ff7112;fill-opacity:1;stroke-width:0.338041"
       id="rect8"
       width="17.158184"
       height="15.115543"
       x="129.50345"
       y="162.59421" />
    <rect
       style="fill:#000000;fill-opacity:1;stroke-width:0.264583"
       id="rect33-27"
       width="1.6341127"
       height="6.127923"
       x="134.04642"
       y="171.32936" />
    <rect
       style="fill:#000000;fill-opacity:1;stroke-width:0.264583"
       id="rect33-3"
       width="1.6341127"
       height="6.127923"
       x="141.67273"
       y="170.96745" />
    <rect
       style="fill:#ff7112;fill-opacity:1;stroke-width:0.338041"
       id="rect9"
       width="17.158184"
       height="15.115543"
       x="62.913349"
       y="161.36862" />
    <rect
       style="fill:#000000;fill-opacity:1;stroke-width:0.264583"
       id="rect33-5"
       width="1.6341127"
       height="6.127923"
       x="73.406113"
       y="171.66386" />
    <ellipse
       style="fill:#ff850e;fill-opacity:1;stroke-width:0.264583"
       id="path10"
       cx="148.09148"
       cy="95.799858"
       rx="29.618294"
       ry="32.477989" />
    <ellipse
       style="fill:#ffffff;fill-opacity:1;stroke-width:0.32169"
       id="path11"
       cx="147.4787"
       cy="109.07703"
       rx="20.834938"
       ry="17.566713" />
    <path
       style="fill:#000000;fill-opacity:1;stroke-width:0.264583"
       id="path14"
       d="m 147.82963,114.33319 c 0.0536,1.65253 -0.0699,3.30989 0.17199,4.94994 0.20857,0.60252 0.54614,1.00868 1.10498,1.31065 1.9955,1.07826 1.73667,1.20069 3.38704,1.17961 1.23419,-0.061 1.72412,-0.2223 2.41129,-1.2428 0.33837,-0.6475 0.63809,-1.31548 0.93608,-1.98255 0,0 -1.69597,-0.95563 -1.69597,-0.95563 v 0 c -0.29151,0.65693 -0.59294,1.31081 -0.92639,1.94752 -0.64815,0.93478 -1.16667,1.05524 -2.29804,1.08994 -1.46224,-0.0271 -1.55492,-0.52884 0.004,0.66286 0.147,0.11239 -0.34204,-0.1485 -0.49244,-0.25632 -0.41156,-0.29504 -0.4455,-0.46855 -0.6946,-0.90409 -0.29187,-1.62105 -0.16281,-3.26811 -0.15839,-4.90784 z" />
    <path
       style="fill:#000000;fill-opacity:1;stroke-width:0.264583"
       id="path15"
       d="m 146.92626,114.61422 c -0.49506,1.57009 -1.23276,3.05282 -1.89154,4.55936 -0.20381,0.33491 -0.55145,1.25949 -0.957,1.43982 -0.51768,0.23019 -1.38639,-0.37313 -1.79072,-0.57961 0.31383,0.17132 0.58396,0.51025 0.94149,0.51395 0.28118,0.003 -0.45676,-0.32914 -0.67111,-0.51115 -0.71108,-0.60377 -1.28858,-1.31612 -1.77823,-2.10416 -0.23651,-0.43362 -0.24547,-0.81033 -0.15433,-1.27554 0,0 -1.72922,-0.92654 -1.72922,-0.92654 v 0 c -0.11224,0.50719 -0.13581,0.92921 0.1058,1.4152 1.13201,1.91033 2.78829,3.11165 4.79005,4.08919 0.54692,0.25449 1.32832,0.75084 1.95671,0.39218 0.4958,-0.28298 0.6859,-1.07486 0.96328,-1.51107 0.64639,-1.51726 1.36909,-3.00393 1.94124,-4.55082 z" />
    <ellipse
       style="fill:#000000;fill-opacity:1;stroke-width:0.264583"
       id="path16"
       cx="148.90852"
       cy="107.03439"
       rx="5.1066022"
       ry="4.0852818" />
    <path
       style="fill:#000000;fill-opacity:1;stroke-width:0.264583"
       d="m 153.6066,108.6685 20.42641,-4.90234 z"
       id="path17" />
    <path
       style="fill:#000000;fill-opacity:1;stroke-width:0.189743"
       d="m 153.5882,109.10352 22.05645,0.48351 0.0455,-1.39992 -21.31391,-0.69294 z"
       id="path18" />
    <path
       style="fill:#000000;fill-opacity:1;stroke-width:0.189743"
       d="m 153.48845,106.40982 21.71318,-3.90624 -0.2334,-1.38108 -21.02701,3.55352 z"
       id="path19" />
    <path
       style="fill:#000000;fill-opacity:1;stroke-width:0.189743"
       d="m 152.60627,111.25225 19.34101,10.61349 0.68679,-1.22073 -18.58566,-10.45638 z"
       id="path20"
       inkscape:transform-center-x="-5.3108666"
       inkscape:transform-center-y="4.4938102" />
    <path
       style="fill:#000000;fill-opacity:1;stroke-width:0.189743"
       d="m 126.05194,96.953763 19.34101,10.613487 0.68679,-1.22073 -18.58566,-10.456377 z"
       id="path22"
       inkscape:transform-center-x="-5.3108666"
       inkscape:transform-center-y="4.4938102" />
    <path
       style="fill:#000000;fill-opacity:1;stroke-width:0.189743"
       d="m 123.60077,106.3499 19.34101,2.21322 0.68679,-1.51902 -18.58566,-2.38418 z"
       id="path23"
       inkscape:transform-center-x="-5.3108666"
       inkscape:transform-center-y="2.0231352" />
    <path
       style="fill:#000000;fill-opacity:1;stroke-width:0.189743"
       d="m 122.41579,117.2072 21.00297,-6.75247 -0.41457,-1.33791 -20.36966,6.31184 z"
       id="path24"
       inkscape:transform-center-x="-7.0646316"
       inkscape:transform-center-y="-0.8225263" />
    <path
       style="fill:#fe7700;fill-opacity:1;stroke-width:0.264583"
       d="m 130.32049,71.083905 1.63412,-24.92022 12.25584,18.792298 z"
       id="path25" />
    <path
       style="fill:#fe7700;fill-opacity:1;stroke-width:0.266743"
       d="M 155.41738,66.425286 178.25584,50.410237 168.89177,71.93549 Z"
       id="path26" />
    <path
       style="fill:#ffffff;fill-opacity:1;stroke-width:0.193115"
       d="M 157.46003,67.480854 173.76204,55.721104 167.078,71.526962 Z"
       id="path27" />
    <path
       style="fill:#ffffff;fill-opacity:1;stroke-width:0.188526"
       d="m 131.54608,68.632736 1.29768,-15.9326 9.73258,12.014748 z"
       id="path28" />
    <path
       style="fill:#000000;fill-opacity:1;stroke-width:0.363093"
       d="m 135.87588,97.961998 5.43293,-20.687164 9.32153,16.399715 -2.94794,-0.229803 -5.81002,-10.795002 -2.92109,11.180587 z"
       id="path30" />
    <path
       style="fill:#000000;fill-opacity:1;stroke-width:0.322357"
       d="m 153.5708,96.472574 12.16373,-18.416024 -0.95247,19.711341 -1.78315,-1.332991 0.83472,-12.852644 -6.56431,9.958827 z"
       id="path31"
       inkscape:transform-center-x="6.0482152"
       inkscape:transform-center-y="-5.8338867" />
    <rect
       style="fill:#000000;fill-opacity:1;stroke-width:0.264583"
       id="rect33"
       width="1.6341127"
       height="6.127923"
       x="64.547455"
       y="171.58183" />
    <path
       style="fill:#ff6600;fill-opacity:1;stroke-width:0.264583"
       id="path34"
       d="m 61.587305,115.45796 c 12.284271,6.90172 4.610071,2.89021 1.974742,0.92594 -1.511626,-1.31224 -2.783697,-2.87028 -3.742079,-4.62378 -0.975736,-2.15018 -1.66165,-4.42392 -2.26499,-6.70317 -0.418592,-1.66645 -0.584787,-2.87642 0.198983,-4.44533 0.773054,-1.379989 1.80317,-2.550468 2.989305,-3.583007 1.287976,-0.975554 2.715426,-1.722446 3.992702,-2.708905 1.220396,-0.954498 2.051921,-2.228437 2.708418,-3.60952 0.705287,-1.535202 0.778113,-3.172455 0.680696,-4.829093 -0.11494,-1.836092 -0.659267,-3.590554 -1.2911,-5.305232 -0.953931,-1.894689 -2.142437,-3.666209 -3.524755,-5.272807 -1.291865,-1.538525 -2.653861,-3.016509 -3.990589,-4.515911 -0.781621,-0.914722 -1.646081,-1.775407 -2.227178,-2.838219 0,0 -7.11772,-3.239236 -7.11772,-3.239236 v 0 c 0.505198,1.208191 1.449898,2.110965 2.287434,3.096265 1.305295,1.540016 2.787015,2.927041 4.016581,4.529707 0.427744,0.480279 0.88713,0.934026 1.284349,1.439844 0.880697,1.121481 1.61027,2.367719 2.338501,3.589382 0.686758,1.633606 1.174644,3.314322 1.342255,5.08444 0.178131,1.519197 0.107804,3.026762 -0.525418,4.444584 -0.61079,1.256374 -1.343781,2.447491 -2.46276,3.320333 -1.327166,0.936948 -2.776611,1.697564 -4.020269,2.7573 -1.279779,1.08423 -2.327249,2.374513 -3.192788,3.813349 -0.890358,1.736283 -0.859872,3.13232 -0.369107,5.000196 0.686398,2.30103 1.396092,4.60302 2.239576,6.8506 0.411297,0.89528 0.480333,1.14883 1.033846,1.95535 0.730097,1.06382 1.663568,1.98606 2.508356,2.95472 3.447058,2.75231 7.65225,4.35932 11.28396,6.83238 z" />
  </g>
</svg>
