<?xml version="1.0" encoding="UTF-8" standalone="no"?>
<!-- Created with Inkscape (http://www.inkscape.org/) -->

<svg
   width="210mm"
   height="297mm"
   viewBox="0 0 210 297"
   version="1.1"
   id="svg1"
   inkscape:version="1.4 (86a8ad7, 2024-10-11)"
   sodipodi:docname="TAZA FOFO.svg"
   xmlns:inkscape="http://www.inkscape.org/namespaces/inkscape"
   xmlns:sodipodi="http://sodipodi.sourceforge.net/DTD/sodipodi-0.dtd"
   xmlns="http://www.w3.org/2000/svg"
   xmlns:svg="http://www.w3.org/2000/svg">
  <sodipodi:namedview
     id="namedview1"
     pagecolor="#ffffff"
     bordercolor="#000000"
     borderopacity="0.25"
     inkscape:showpageshadow="2"
     inkscape:pageopacity="0.0"
     inkscape:pagecheckerboard="0"
     inkscape:deskcolor="#d1d1d1"
     inkscape:document-units="mm"
     inkscape:zoom="0.64765011"
     inkscape:cx="397.59122"
     inkscape:cy="561.25984"
     inkscape:window-width="1280"
     inkscape:window-height="971"
     inkscape:window-x="-8"
     inkscape:window-y="-8"
     inkscape:window-maximized="1"
     inkscape:current-layer="layer1" />
  <defs
     id="defs1" />
  <g
     inkscape:label="Capa 1"
     inkscape:groupmode="layer"
     id="layer1">
    <path
       style="fill:#d38d5f;stroke-width:0.398843"
       id="path1"
       sodipodi:type="arc"
       sodipodi:cx="95.799866"
       sodipodi:cy="178.40137"
       sodipodi:rx="37.78886"
       sodipodi:ry="51.600021"
       sodipodi:start="6.2635601"
       sodipodi:end="3.1445201"
       sodipodi:arc-type="slice"
       d="m 133.58145,177.38877 a 37.78886,51.600021 0 0 1 -18.49231,45.38388 37.78886,51.600021 0 0 1 -38.03329,0.4336 37.78886,51.600021 0 0 1 -19.044683,-44.95594 l 37.788699,0.15106 z" />
    <rect
       style="fill:#d38d5f;stroke-width:0.196074"
       id="rect5"
       width="78.028885"
       height="31.048141"
       x="56.785419"
       y="147.47867"
       rx="2.81037"
       ry="10.404296" />
    <rect
       style="fill:#28170b;stroke-width:0.241752"
       id="rect6"
       width="74.352127"
       height="2.8596973"
       x="59.236588"
       y="145.02751"
       rx="2.346272"
       ry="2.8596973" />
    <path
       style="fill:#c87137;stroke-width:0.12989"
       id="path7"
       sodipodi:type="arc"
       sodipodi:cx="139.42944"
       sodipodi:cy="174.85007"
       sodipodi:rx="19.488018"
       sodipodi:ry="10.213203"
       sodipodi:start="4.4518387"
       sodipodi:end="1.8714824"
       sodipodi:arc-type="arc"
       d="m 134.40909,164.98158 a 19.488018,10.213203 0 0 1 21.13668,4.1264 19.488018,10.213203 0 0 1 -0.45261,11.81845 19.488018,10.213203 0 0 1 -21.43559,3.67861"
       sodipodi:open="true" />
    <path
       style="fill:#ececec;stroke-width:0.0854046"
       id="path8"
       sodipodi:type="arc"
       sodipodi:cx="143.74037"
       sodipodi:cy="175.87138"
       sodipodi:rx="9.0491982"
       sodipodi:ry="5.51513"
       sodipodi:start="4.3232804"
       sodipodi:end="1.8714824"
       sodipodi:open="true"
       sodipodi:arc-type="arc"
       d="m 140.30743,170.76852 a 9.0491982,5.51513 0 0 1 10.45353,1.6231 9.0491982,5.51513 0 0 1 0.47677,6.56809 9.0491982,5.51513 0 0 1 -10.17751,2.17936" />
    <path
       style="fill:#deaa87;stroke-width:0.264583"
       id="path10"
       d="m 96.213783,144.14692 c 1.62899,-0.0401 3.258836,-0.0408 4.888257,-0.0469 1.08171,-0.0962 3.39849,0.33731 4.24051,-0.50168 0.17135,-0.17074 0.2647,-0.40496 0.39705,-0.60744 0.0557,-0.28644 0.14524,-0.56834 0.16721,-0.85932 0.17335,-2.29618 -1.35746,-4.80523 -2.32984,-6.79691 -0.2152,-0.40758 -0.39632,-0.83506 -0.64559,-1.22274 -1.37724,-2.14191 -3.898594,-3.16881 -6.125449,-4.15459 -0.525282,-0.23254 -2.959205,-0.46564 -3.448081,-0.52177 -3.240503,-0.25255 -6.494256,-0.28086 -9.743107,-0.27491 -1.26438,-0.0918 -2.596705,0.003 -3.795517,-0.48825 -0.250986,-0.10287 -0.96054,-0.50422 -0.724352,-0.37082 0.830911,0.46927 1.672632,0.91914 2.508949,1.37872 -2.099305,-1.49659 -3.522973,-3.33934 -4.669124,-5.61899 -1.025982,-2.31679 -1.392515,-4.82344 -1.604245,-7.3261 -0.04175,-1.50688 -0.212847,-3.19962 0.401704,-4.62997 0.0882,-0.2053 0.220678,-0.3886 0.331014,-0.5829 1.244262,-1.63136 2.858061,-1.78922 4.774759,-2.0037 5.060942,-0.46758 9.997561,1.16419 14.847522,2.38072 0.263083,0.0673 5.420437,1.38844 5.909347,1.50762 1.62323,0.39567 3.48366,0.99804 5.16041,0.44164 0.31352,-0.10404 0.57692,-0.32193 0.86537,-0.48289 0.42157,-0.48874 0.84554,-0.8343 0.91964,-1.53731 0.23584,-2.23771 -1.56589,-5.11327 -2.61436,-6.95674 -1.89561,-3.13944 -4.11135,-5.686298 -7.029615,-7.888112 -0.423246,-0.262324 -0.836276,-0.541894 -1.269735,-0.786974 -1.504791,-0.850829 -3.006762,-1.708624 -4.54366,-2.499987 -0.618334,-0.318389 -1.901246,-0.715164 -2.577378,-0.944417 -2.351572,-0.797335 -0.0049,-0.01842 -2.199701,-0.742215 -0.584118,-0.250036 -1.212231,-0.3747 -1.803987,-0.60207 -0.24974,-0.09596 -0.959763,-0.470148 -0.731028,-0.331372 4.684974,2.842398 2.212612,1.240044 1.00852,0.163248 -0.805309,-0.819616 -2.137907,-2.023629 -1.45339,-3.286136 0.09474,-0.09753 0.169338,-0.219866 0.284226,-0.292592 0.884928,-0.560173 2.771576,-0.62003 3.806547,-0.692838 2.081691,-0.09226 4.166407,-0.08697 6.249664,-0.0751 0,0 -3.073011,-2.23349 -3.073011,-2.23349 v 0 c -2.096931,0.0047 -4.196014,-0.0313 -6.290844,0.08055 -1.20318,0.09123 -3.030286,0.155718 -4.03687,0.888312 -0.137353,0.09997 -0.226711,0.253063 -0.340066,0.379595 -0.07921,0.153559 -0.19004,0.294576 -0.237628,0.460679 -0.382415,1.334842 0.749893,2.473315 1.571104,3.329845 0.241271,0.228775 1.181431,1.147339 1.490443,1.338022 2.268635,1.399913 4.093922,2.526326 6.554766,3.200484 1.121167,0.365506 2.259179,0.713021 3.361473,1.13243 0.444945,0.169296 1.623748,0.912551 1.319551,0.546357 -0.461155,-0.555144 -1.248494,-0.729906 -1.82863,-1.159193 -0.398669,-0.295005 0.854776,0.503214 1.282165,0.754819 3.004061,2.171663 5.250244,4.642185 7.217304,7.802305 0.96429,1.68564 2.72078,4.4929 2.53483,6.54644 -0.0545,0.60182 -0.41753,0.89901 -0.77515,1.3149 -0.25056,0.13569 -0.48022,0.32048 -0.75169,0.40709 -1.55618,0.49648 -3.31959,-0.0389 -4.829457,-0.38516 -1.494742,-0.34275 -4.397427,-1.07918 -5.808585,-1.43284 -4.980162,-1.28002 -10.042512,-2.95688 -15.248546,-2.51847 -2.175558,0.23398 -3.660063,0.43318 -5.065607,2.24868 -0.120205,0.21986 -0.265096,0.42794 -0.360619,0.65958 -0.568473,1.37865 -0.483402,3.32889 -0.41565,4.78871 0.231085,2.53892 0.613622,5.07514 1.560492,7.45953 0.410024,0.85824 0.603681,1.34241 1.135589,2.13778 0.929309,1.38961 2.121087,2.59334 3.409889,3.64783 1.589939,0.94195 3.069981,2.15372 4.826579,2.72778 1.219899,0.39867 2.536383,0.29229 3.796832,0.35818 3.208501,-0.0347 6.425086,-0.0771 9.622253,0.24707 0.607859,0.0845 1.220599,0.13934 1.823579,0.25359 0.551336,0.10446 1.822892,0.93039 1.634802,0.40171 -0.266348,-0.74865 -1.2886,-0.9335 -1.969643,-1.3429 -0.328332,-0.19737 0.629561,0.44144 0.907908,0.70465 0.895151,0.84649 0.910698,1.0773 1.522884,2.16962 1.10589,2.2215 2.64889,4.63926 2.18554,7.22028 -0.10394,0.14926 -0.17585,0.32697 -0.31182,0.44776 -0.77278,0.68657 -3.088611,0.28902 -4.048064,0.39417 -1.672513,-0.006 -3.345397,-0.008 -5.017513,-0.047 z" />
  </g>
</svg>
